
	<svg xmlns="http://www.w3.org/2000/svg" xmlns:xlink="http://www.w3.org/1999/xlink" version="1.1" width="64" height="64" viewBox="0 0 100 100">


		<defs>
			<linearGradient id="Gradient_1" gradientUnits="userSpaceOnUse" x1="50" y1="60" x2="50" y2="0" spreadMethod="pad">
<stop offset="0%" stop-color="#FFFFFF" stop-opacity="0.3"/>

<stop offset="100%" stop-color="#FFFFFF" stop-opacity="0.7"/>
</linearGradient><linearGradient id="Gradient_2" gradientUnits="userSpaceOnUse" x1="95" y1="37" x2="7" y2="37" spreadMethod="pad">
<stop offset="0%" stop-color="#FFFFFF" stop-opacity="0.1"/>

<stop offset="100%" stop-color="#FFFFFF" stop-opacity="0.7"/>
</linearGradient><linearGradient id="Gradient_3" gradientUnits="userSpaceOnUse" x1="5" y1="37" x2="93" y2="37" spreadMethod="pad">
<stop offset="0%" stop-color="#FFFFFF" stop-opacity="0.1"/>

<stop offset="100%" stop-color="#FFFFFF" stop-opacity="0.7"/>
</linearGradient><g id="background">
<path fill="url(#background-gradient)" stroke="none" d=" M 95.3 31.9 Q 95.3 28.55 93.25 25 91.2 21.4 88.25 19.75 L 57 1.65 Q 54.1 0 50 0 45.9 0 43 1.65 L 11.7 19.75 Q 8.8 21.4 6.75 25 4.7 28.55 4.7 31.9 L 4.7 68.15 Q 4.7 71.45 6.75 75.05 8.8 78.6 11.7 80.25 L 43 98.35 Q 45.9 100 50 100 54.1 100 57 98.35 L 88.25 80.25 Q 91.2 78.6 93.25 75.05 95.3 71.45 95.3 68.15 L 95.3 31.9 Z"/>
</g><mask id="mask">
<path fill="#FFFFFF" stroke="none" d=" M 95.3 31.9 Q 95.3 28.55 93.25 25 91.2 21.4 88.25 19.75 L 57 1.65 Q 54.1 0 50 0 45.9 0 43 1.65 L 11.7 19.75 Q 8.8 21.4 6.75 25 4.7 28.55 4.7 31.9 L 4.7 68.15 Q 4.7 71.45 6.75 75.05 8.8 78.6 11.7 80.25 L 43 98.35 Q 45.9 100 50 100 54.1 100 57 98.35 L 88.25 80.25 Q 91.2 78.6 93.25 75.05 95.3 71.45 95.3 68.15 L 95.3 31.9 Z"/>
</mask><g id="gloss-top">
<path fill="url(#Gradient_1)" stroke="none" d=" M 95.3 42.75 L 95.3 31.9 Q 95.3 28.55 93.25 25 91.2 21.4 88.25 19.75 L 57 1.65 Q 54.1 0 50 0 45.9 0 43 1.65 L 11.7 19.75 Q 8.8 21.4 6.75 25 4.7 28.55 4.7 31.9 L 4.7 42.75 Q 12.4 50.8 24.1 55.35 36.2 60.1 50 60.1 63.8 60.1 75.9 55.35 87.6 50.8 95.3 42.75 Z"/>
</g><g id="gloss-right">
<path fill="url(#Gradient_2)" stroke="none" d=" M 95.3 31.9 Q 95.3 28.55 93.25 25 91.2 21.4 88.25 19.75 L 57 1.65 Q 54.1 0 50 0 45.9 0 43 1.65 L 11.7 19.75 Q 8.85 21.4 6.85 24.85 L 93.35 74.75 Q 95.3 71.2 95.3 68.15 L 95.3 31.9 Z"/>
</g><g id="gloss-left">
<path fill="url(#Gradient_3)" stroke="none" d=" M 93.3 25.15 Q 91.3 21.5 88.25 19.75 L 57 1.65 Q 54.1 0 50 0 45.9 0 43 1.65 L 11.7 19.75 Q 8.8 21.4 6.75 25 4.7 28.55 4.7 31.9 L 4.7 68.15 Q 4.7 71.2 6.65 74.75 L 93.3 25.15 Z"/>
</g>
			
	<linearGradient id="background-gradient" x1="0" y1="0" y2="1" x2="0" >
		<stop stop-color="#1C5298" offset="0%"/>
		<stop stop-color="#0B61CF" offset="100%"/>
	</linearGradient>

			
			
			<g transform="scale(3.3333333333333335) translate(0.050000011920928955 0)" id="picture"><path d="M25.8 30H4.2C2.3 30 .7 28.4.7 26.5S2.3 23 4.2 23h21.5c1.9 0 3.5 1.6 3.5 3.5S27.7 30 25.8 30zM4.2 24c-1.4 0-2.5 1.1-2.5 2.5S2.9 29 4.2 29h21.5c1.4 0 2.5-1.1 2.5-2.5S27.1 24 25.8 24H4.2z M4.8 27c-.3 0-.5-.2-.5-.5s.2-.5.5-.5.5.2.5.5-.3.5-.5.5zm2 0c-.3 0-.5-.2-.5-.5s.2-.5.5-.5.5.2.5.5-.3.5-.5.5zm19-3H4.2C2.3 24 .7 22.4.7 20.5S2.3 17 4.2 17h21.5c1.9 0 3.5 1.6 3.5 3.5S27.7 24 25.8 24zM4.2 18c-1.4 0-2.5 1.1-2.5 2.5S2.9 23 4.2 23h21.5c1.4 0 2.5-1.1 2.5-2.5S27.1 18 25.8 18H4.2z M4.8 21c-.3 0-.5-.2-.5-.5s.2-.5.5-.5.5.2.5.5-.2.5-.5.5zm2 0c-.3 0-.5-.2-.5-.5s.2-.5.5-.5.5.2.5.5-.3.5-.5.5zm20.5 5a1 1 0 1 1-2 0 1 1 0 1 1 2 0zm0-6a1 1 0 1 1-2 0 1 1 0 1 1 2 0zm-6-5H9.2c-2.2 0-4-1.8-4-4 0-2 1.5-3.7 3.5-4v-.2c0-3.8 3-6.8 6.7-6.8 3 0 5.6 2 6.4 4.9 2.5.3 4.4 2.4 4.4 5 .1 2.8-2.2 5.1-4.9 5.1zM9.2 8c-1.6 0-2.9 1.3-2.9 3s1.3 3 3 3h12.1c2.2 0 4-1.8 4-4.1 0-2.2-1.7-3.9-3.8-4-.2 0-.4-.2-.5-.4-.7-2.6-3-4.5-5.7-4.5-3.1 0-5.7 2.6-5.7 5.8v.6c0 .2 0 .3-.1.4s-.3.2-.4.2z"/></g>
			
	<linearGradient id="picture-gradient" x1="0" y1="0" y2="1" x2="0" >
		<stop stop-color="#191B1F" offset="0%"/>
		<stop stop-color="#191B1F" offset="100%"/>
	</linearGradient>

		</defs>

		

			<use xlink:href="#background" fill="url(#background-gradient)" />

		

			<g mask="url(#mask)">
				<g transform="
				        translate(
                                50 50
)
                            translate(0 0)  scale(0.575)  
                            translate(
                                -50 -50
)">
						<use xlink:href="#picture" fill="url(#picture-gradient)"  />
				</g>
			</g>

		

			<use xlink:href="#gloss-top" opacity="0.3" />


	</svg>
