
	<svg xmlns="http://www.w3.org/2000/svg" xmlns:xlink="http://www.w3.org/1999/xlink" version="1.1" width="64" height="64" viewBox="0 0 100 100">


		<defs>
			<linearGradient id="Gradient_1" gradientUnits="userSpaceOnUse" x1="50" y1="60" x2="50" y2="0" spreadMethod="pad">
<stop offset="0%" stop-color="#FFFFFF" stop-opacity="0.3"/>

<stop offset="100%" stop-color="#FFFFFF" stop-opacity="0.7"/>
</linearGradient><linearGradient id="Gradient_2" gradientUnits="userSpaceOnUse" x1="95" y1="37" x2="7" y2="37" spreadMethod="pad">
<stop offset="0%" stop-color="#FFFFFF" stop-opacity="0.1"/>

<stop offset="100%" stop-color="#FFFFFF" stop-opacity="0.7"/>
</linearGradient><linearGradient id="Gradient_3" gradientUnits="userSpaceOnUse" x1="5" y1="37" x2="93" y2="37" spreadMethod="pad">
<stop offset="0%" stop-color="#FFFFFF" stop-opacity="0.1"/>

<stop offset="100%" stop-color="#FFFFFF" stop-opacity="0.7"/>
</linearGradient><g id="background">
<path fill="url(#background-gradient)" stroke="none" d=" M 95.3 31.9 Q 95.3 28.55 93.25 25 91.2 21.4 88.25 19.75 L 57 1.65 Q 54.1 0 50 0 45.9 0 43 1.65 L 11.7 19.75 Q 8.8 21.4 6.75 25 4.7 28.55 4.7 31.9 L 4.7 68.15 Q 4.7 71.45 6.75 75.05 8.8 78.6 11.7 80.25 L 43 98.35 Q 45.9 100 50 100 54.1 100 57 98.35 L 88.25 80.25 Q 91.2 78.6 93.25 75.05 95.3 71.45 95.3 68.15 L 95.3 31.9 Z"/>
</g><mask id="mask">
<path fill="#FFFFFF" stroke="none" d=" M 95.3 31.9 Q 95.3 28.55 93.25 25 91.2 21.4 88.25 19.75 L 57 1.65 Q 54.1 0 50 0 45.9 0 43 1.65 L 11.7 19.75 Q 8.8 21.4 6.75 25 4.7 28.55 4.7 31.9 L 4.7 68.15 Q 4.7 71.45 6.75 75.05 8.8 78.6 11.7 80.25 L 43 98.35 Q 45.9 100 50 100 54.1 100 57 98.35 L 88.25 80.25 Q 91.2 78.6 93.25 75.05 95.3 71.45 95.3 68.15 L 95.3 31.9 Z"/>
</mask><g id="gloss-top">
<path fill="url(#Gradient_1)" stroke="none" d=" M 95.3 42.75 L 95.3 31.9 Q 95.3 28.55 93.25 25 91.2 21.4 88.25 19.75 L 57 1.65 Q 54.1 0 50 0 45.9 0 43 1.65 L 11.7 19.75 Q 8.8 21.4 6.75 25 4.7 28.55 4.7 31.9 L 4.7 42.75 Q 12.4 50.8 24.1 55.35 36.2 60.1 50 60.1 63.8 60.1 75.9 55.35 87.6 50.8 95.3 42.75 Z"/>
</g><g id="gloss-right">
<path fill="url(#Gradient_2)" stroke="none" d=" M 95.3 31.9 Q 95.3 28.55 93.25 25 91.2 21.4 88.25 19.75 L 57 1.65 Q 54.1 0 50 0 45.9 0 43 1.65 L 11.7 19.75 Q 8.85 21.4 6.85 24.85 L 93.35 74.75 Q 95.3 71.2 95.3 68.15 L 95.3 31.9 Z"/>
</g><g id="gloss-left">
<path fill="url(#Gradient_3)" stroke="none" d=" M 93.3 25.15 Q 91.3 21.5 88.25 19.75 L 57 1.65 Q 54.1 0 50 0 45.9 0 43 1.65 L 11.7 19.75 Q 8.8 21.4 6.75 25 4.7 28.55 4.7 31.9 L 4.7 68.15 Q 4.7 71.2 6.65 74.75 L 93.3 25.15 Z"/>
</g>
			
	<linearGradient id="background-gradient" x1="0" y1="0" y2="1" x2="0" >
		<stop stop-color="#8E2F5C" offset="0%"/>
		<stop stop-color="#E8006E" offset="100%"/>
	</linearGradient>

			
			
			<g transform="scale(2.0876826057296274) translate(-0.05000019073486328 5.3346028039413795e-8)" id="picture"><path d="M43.3 8.1a19.3 8.1 0 1 1-38.6 0 19.3 8.1 0 1 1 38.6 0z M24 17.6c-9 0-16.3-2.4-19.3-5.9v7.2c.3 4.4 8.8 7.9 19.3 7.9s19-3.5 19.3-7.9v-7.2c-3 3.5-10.3 5.9-19.3 5.9z M24 28.2c-9 0-16.3-2.4-19.3-5.9v7.5h.1c.6 4.3 8.9 7.6 19.2 7.6 10.3 0 18.7-3.4 19.2-7.6h.1v-7.5c-3 3.5-10.3 5.9-19.3 5.9z M24 38.8c-9 0-16.3-2.4-19.3-6v7c0 4.5 8.6 8.1 19.3 8.1 10.7 0 19.3-3.6 19.3-8.1v-7c-3 3.6-10.3 6-19.3 6z"/></g>
			
	<linearGradient id="picture-gradient" x1="0" y1="0" y2="1" x2="0" >
		<stop stop-color="#271F23" offset="0%"/>
		<stop stop-color="#271F23" offset="100%"/>
	</linearGradient>

		</defs>

		

			<use xlink:href="#background" fill="url(#background-gradient)" />

		

			<g mask="url(#mask)">
				<g transform="
				        translate(
                                50 50
)
                            translate(0 0)  scale(0.55)  
                            translate(
                                -50 -50
)">
						<use xlink:href="#picture" fill="url(#picture-gradient)"  />
				</g>
			</g>

		

			<use xlink:href="#gloss-top" opacity="0.3" />


	</svg>
