
	<svg xmlns="http://www.w3.org/2000/svg" xmlns:xlink="http://www.w3.org/1999/xlink" version="1.1" width="64" height="64" viewBox="0 0 100 100">


		<defs>
			<linearGradient id="Gradient_1" gradientUnits="userSpaceOnUse" x1="50" y1="60" x2="50" y2="0" spreadMethod="pad">
<stop offset="0%" stop-color="#FFFFFF" stop-opacity="0.3"/>

<stop offset="100%" stop-color="#FFFFFF" stop-opacity="0.7"/>
</linearGradient><linearGradient id="Gradient_2" gradientUnits="userSpaceOnUse" x1="95" y1="37" x2="7" y2="37" spreadMethod="pad">
<stop offset="0%" stop-color="#FFFFFF" stop-opacity="0.1"/>

<stop offset="100%" stop-color="#FFFFFF" stop-opacity="0.7"/>
</linearGradient><linearGradient id="Gradient_3" gradientUnits="userSpaceOnUse" x1="5" y1="37" x2="93" y2="37" spreadMethod="pad">
<stop offset="0%" stop-color="#FFFFFF" stop-opacity="0.1"/>

<stop offset="100%" stop-color="#FFFFFF" stop-opacity="0.7"/>
</linearGradient><g id="background">
<path fill="url(#background-gradient)" stroke="none" d=" M 95.3 31.9 Q 95.3 28.55 93.25 25 91.2 21.4 88.25 19.75 L 57 1.65 Q 54.1 0 50 0 45.9 0 43 1.65 L 11.7 19.75 Q 8.8 21.4 6.75 25 4.7 28.55 4.7 31.9 L 4.7 68.15 Q 4.7 71.45 6.75 75.05 8.8 78.6 11.7 80.25 L 43 98.35 Q 45.9 100 50 100 54.1 100 57 98.35 L 88.25 80.25 Q 91.2 78.6 93.25 75.05 95.3 71.45 95.3 68.15 L 95.3 31.9 Z"/>
</g><mask id="mask">
<path fill="#FFFFFF" stroke="none" d=" M 95.3 31.9 Q 95.3 28.55 93.25 25 91.2 21.4 88.25 19.75 L 57 1.65 Q 54.1 0 50 0 45.9 0 43 1.65 L 11.7 19.75 Q 8.8 21.4 6.75 25 4.7 28.55 4.7 31.9 L 4.7 68.15 Q 4.7 71.45 6.75 75.05 8.8 78.6 11.7 80.25 L 43 98.35 Q 45.9 100 50 100 54.1 100 57 98.35 L 88.25 80.25 Q 91.2 78.6 93.25 75.05 95.3 71.45 95.3 68.15 L 95.3 31.9 Z"/>
</mask><g id="gloss-top">
<path fill="url(#Gradient_1)" stroke="none" d=" M 95.3 42.75 L 95.3 31.9 Q 95.3 28.55 93.25 25 91.2 21.4 88.25 19.75 L 57 1.65 Q 54.1 0 50 0 45.9 0 43 1.65 L 11.7 19.75 Q 8.8 21.4 6.75 25 4.7 28.55 4.7 31.9 L 4.7 42.75 Q 12.4 50.8 24.1 55.35 36.2 60.1 50 60.1 63.8 60.1 75.9 55.35 87.6 50.8 95.3 42.75 Z"/>
</g><g id="gloss-right">
<path fill="url(#Gradient_2)" stroke="none" d=" M 95.3 31.9 Q 95.3 28.55 93.25 25 91.2 21.4 88.25 19.75 L 57 1.65 Q 54.1 0 50 0 45.9 0 43 1.65 L 11.7 19.75 Q 8.85 21.4 6.85 24.85 L 93.35 74.75 Q 95.3 71.2 95.3 68.15 L 95.3 31.9 Z"/>
</g><g id="gloss-left">
<path fill="url(#Gradient_3)" stroke="none" d=" M 93.3 25.15 Q 91.3 21.5 88.25 19.75 L 57 1.65 Q 54.1 0 50 0 45.9 0 43 1.65 L 11.7 19.75 Q 8.8 21.4 6.75 25 4.7 28.55 4.7 31.9 L 4.7 68.15 Q 4.7 71.2 6.65 74.75 L 93.3 25.15 Z"/>
</g>
			
	<linearGradient id="background-gradient" x1="0" y1="0" y2="1" x2="0" >
		<stop stop-color="#AA9239" offset="0%"/>
		<stop stop-color="#FFC900" offset="60%"/>
	</linearGradient>

			
			
			<g transform="scale(2.0833333333333335)" id="picture"><path d="M33.1 15.5h-9.5c-.6 0-1 .5-1 1v3.7c0 .6.5 1 1 1h9.5c.6 0 1-.5 1-1v-3.7c.1-.5-.4-1-1-1zm0 7.3h-9.5c-.6 0-1 .5-1 1v7.6c0 .6.5 1 1 1h9.5c.6 0 1-.5 1-1v-7.6c.1-.5-.4-1-1-1zm-13.4-7.3h-4.8c-.6 0-1 .5-1 1v11.4c0 .6.5 1 1 1h4.8c.6 0 1-.5 1-1V16.5c0-.5-.4-1-1-1z M48 17.3V15h-8.2V9.2c0-.6-.5-1-1-1H33V0h-2.3v8.2h-2.9V0h-2.3v8.2h-2.9V0h-2.3v8.2h-2.9V0H15v8.2H9.2c-.6 0-1 .5-1 1V15H0v2.3h8.2v2.9H0v2.3h8.2v2.9H0v2.3h8.2v2.9H0V33h8.2v5.7c0 .6.5 1 1 1H15V48h2.3v-8.2h2.9V48h2.3v-8.2h2.9V48h2.3v-8.2h2.9V48H33v-8.2h5.7c.6 0 1-.5 1-1V33H48v-2.3h-8.2v-2.9H48v-2.3h-8.2v-2.9H48v-2.3h-8.2v-2.9H48zM36.4 35.4c0 .6-.5 1-1 1H12.6c-.6 0-1-.5-1-1V12.6c0-.6.5-1 1-1h22.8c.6 0 1 .5 1 1v22.8z"/></g>
			
	<linearGradient id="picture-gradient" x1="0" y1="0" y2="1" x2="0" >
		<stop stop-color="#2F2D25" offset="0%"/>
		<stop stop-color="#2F2D25" offset="100%"/>
	</linearGradient>

		</defs>

		

			<use xlink:href="#background" fill="url(#background-gradient)" />

		

			<g mask="url(#mask)">
				<g transform="
				        translate(
                                50 50
)
                            translate(0 0)  scale(0.575) scale(-1 1) 
                            translate(
                                -50 -50
)">
						<use xlink:href="#picture" fill="url(#picture-gradient)"  />
				</g>
			</g>

		

			<use xlink:href="#gloss-top" opacity="0.3" />


	</svg>
