
	<svg xmlns="http://www.w3.org/2000/svg" xmlns:xlink="http://www.w3.org/1999/xlink" version="1.1" width="64" height="64" viewBox="0 0 100 100">


		<defs>
			<linearGradient id="Gradient_1" gradientUnits="userSpaceOnUse" x1="50" y1="60" x2="50" y2="0" spreadMethod="pad">
<stop offset="0%" stop-color="#FFFFFF" stop-opacity="0.3"/>

<stop offset="100%" stop-color="#FFFFFF" stop-opacity="0.7"/>
</linearGradient><linearGradient id="Gradient_2" gradientUnits="userSpaceOnUse" x1="95" y1="37" x2="7" y2="37" spreadMethod="pad">
<stop offset="0%" stop-color="#FFFFFF" stop-opacity="0.1"/>

<stop offset="100%" stop-color="#FFFFFF" stop-opacity="0.7"/>
</linearGradient><linearGradient id="Gradient_3" gradientUnits="userSpaceOnUse" x1="5" y1="37" x2="93" y2="37" spreadMethod="pad">
<stop offset="0%" stop-color="#FFFFFF" stop-opacity="0.1"/>

<stop offset="100%" stop-color="#FFFFFF" stop-opacity="0.7"/>
</linearGradient><g id="background">
<path fill="url(#background-gradient)" stroke="none" d=" M 95.3 31.9 Q 95.3 28.55 93.25 25 91.2 21.4 88.25 19.75 L 57 1.65 Q 54.1 0 50 0 45.9 0 43 1.65 L 11.7 19.75 Q 8.8 21.4 6.75 25 4.7 28.55 4.7 31.9 L 4.7 68.15 Q 4.7 71.45 6.75 75.05 8.8 78.6 11.7 80.25 L 43 98.35 Q 45.9 100 50 100 54.1 100 57 98.35 L 88.25 80.25 Q 91.2 78.6 93.25 75.05 95.3 71.45 95.3 68.15 L 95.3 31.9 Z"/>
</g><mask id="mask">
<path fill="#FFFFFF" stroke="none" d=" M 95.3 31.9 Q 95.3 28.55 93.25 25 91.2 21.4 88.25 19.75 L 57 1.65 Q 54.1 0 50 0 45.9 0 43 1.65 L 11.7 19.75 Q 8.8 21.4 6.75 25 4.7 28.55 4.7 31.9 L 4.7 68.15 Q 4.7 71.45 6.75 75.05 8.8 78.6 11.7 80.25 L 43 98.35 Q 45.9 100 50 100 54.1 100 57 98.35 L 88.25 80.25 Q 91.2 78.6 93.25 75.05 95.3 71.45 95.3 68.15 L 95.3 31.9 Z"/>
</mask><g id="gloss-top">
<path fill="url(#Gradient_1)" stroke="none" d=" M 95.3 42.75 L 95.3 31.9 Q 95.3 28.55 93.25 25 91.2 21.4 88.25 19.75 L 57 1.65 Q 54.1 0 50 0 45.9 0 43 1.65 L 11.7 19.75 Q 8.8 21.4 6.75 25 4.7 28.55 4.7 31.9 L 4.7 42.75 Q 12.4 50.8 24.1 55.35 36.2 60.1 50 60.1 63.8 60.1 75.9 55.35 87.6 50.8 95.3 42.75 Z"/>
</g><g id="gloss-right">
<path fill="url(#Gradient_2)" stroke="none" d=" M 95.3 31.9 Q 95.3 28.55 93.25 25 91.2 21.4 88.25 19.75 L 57 1.65 Q 54.1 0 50 0 45.9 0 43 1.65 L 11.7 19.75 Q 8.85 21.4 6.85 24.85 L 93.35 74.75 Q 95.3 71.2 95.3 68.15 L 95.3 31.9 Z"/>
</g><g id="gloss-left">
<path fill="url(#Gradient_3)" stroke="none" d=" M 93.3 25.15 Q 91.3 21.5 88.25 19.75 L 57 1.65 Q 54.1 0 50 0 45.9 0 43 1.65 L 11.7 19.75 Q 8.8 21.4 6.75 25 4.7 28.55 4.7 31.9 L 4.7 68.15 Q 4.7 71.2 6.65 74.75 L 93.3 25.15 Z"/>
</g>
			
	<linearGradient id="background-gradient" x1="0" y1="0" y2="1" x2="0" >
		<stop stop-color="#AA4139" offset="0%"/>
		<stop stop-color="#FF1300" offset="100%"/>
	</linearGradient>

			
			
			<g transform="scale(3.4482758620689653) translate(-0.5 -0.5)" id="picture"><path d="M15 23.5C8.7 23.5 3.5 18.3 3.5 12S8.7.5 15 .5 26.5 5.7 26.5 12 21.3 23.5 15 23.5zm0-22C9.2 1.5 4.5 6.2 4.5 12S9.2 22.5 15 22.5 25.5 17.8 25.5 12 20.8 1.5 15 1.5z M15 23.5c-3.6 0-6.5-5.1-6.5-11.5S11.4.5 15 .5s6.5 5.1 6.5 11.5-2.9 11.5-6.5 11.5zm0-22c-3 0-5.5 4.8-5.5 10.5S12 22.5 15 22.5s5.5-4.8 5.5-10.5S18 1.5 15 1.5z M24 6.5H6c-.3 0-.5-.2-.5-.5s.2-.5.5-.5h18c.3 0 .5.2.5.5s-.2.5-.5.5z M15 23.5c-.3 0-.5-.2-.5-.5V1c0-.3.2-.5.5-.5s.5.2.5.5v22c0 .3-.2.5-.5.5z M26 12.5H4c-.3 0-.5-.2-.5-.5s.2-.5.5-.5h22c.3 0 .5.2.5.5s-.2.5-.5.5zm-2 6H6c-.3 0-.5-.2-.5-.5s.2-.5.5-.5h18c.3 0 .5.2.5.5s-.2.5-.5.5zm-7 11h-4c-.3 0-.5-.2-.5-.5v-2c0-.3.2-.5.5-.5h.5V26c0-.3.2-.5.5-.5h2c.3 0 .5.2.5.5v.5h.5c.3 0 .5.2.5.5v2c0 .3-.2.5-.5.5zm-3.5-1h3v-1H16c-.3 0-.5-.2-.5-.5v-.5h-1v.5c0 .3-.2.5-.5.5h-.5v1z M15 26.5c-.3 0-.5-.2-.5-.5v-3c0-.3.2-.5.5-.5s.5.2.5.5v3c0 .3-.2.5-.5.5zm9 2h-7c-.3 0-.5-.2-.5-.5s.2-.5.5-.5h7c.3 0 .5.2.5.5s-.2.5-.5.5zm-11 0H6c-.3 0-.5-.2-.5-.5s.2-.5.5-.5h7c.3 0 .5.2.5.5s-.2.5-.5.5z"/></g>
			
	<linearGradient id="picture-gradient" x1="0" y1="0" y2="1" x2="0" >
		<stop stop-color="#2F2525" offset="0%"/>
		<stop stop-color="#2F2525" offset="100%"/>
	</linearGradient>

		</defs>

		

			<use xlink:href="#background" fill="url(#background-gradient)" />

		

			<g mask="url(#mask)">
				<g transform="
				        translate(
                                50 50
)
                            translate(0 0)  scale(0.575)  
                            translate(
                                -50 -50
)">
						<use xlink:href="#picture" fill="url(#picture-gradient)"  />
				</g>
			</g>

		

			<use xlink:href="#gloss-top" opacity="0.3" />


	</svg>
